<svg xmlns="http://www.w3.org/2000/svg" viewBox="0 0 1920 1080"><g transform="          rotate(90 960 540)           translate(-746.6666666666665 -420)          scale(1.7777777777777777)        "><rect width="1920" height="1080" fill="rgb(76, 86, 106)"></rect><g transform="translate(0, 0)"><path fill="rgb(70, 79, 98)" fill-opacity="1" d="M0,211.766L35.556,210.045C71.111,208.324,142.222,204.882,213.333,204.349C284.444,203.815,355.556,206.19,426.667,206.457C497.778,206.724,568.889,204.883,640,181.91C711.111,158.936,782.222,114.83,853.333,111.105C924.444,107.38,995.556,144.036,1066.667,132.802C1137.778,121.567,1208.889,62.441,1280,59.088C1351.111,55.735,1422.222,108.155,1493.333,121.211C1564.444,134.268,1635.556,107.962,1706.667,83.613C1777.778,59.265,1848.889,36.873,1884.444,25.677L1920,14.482L1920,1080L1884.444,1080C1848.889,1080,1777.778,1080,1706.667,1080C1635.556,1080,1564.444,1080,1493.333,1080C1422.222,1080,1351.111,1080,1280,1080C1208.889,1080,1137.778,1080,1066.667,1080C995.556,1080,924.444,1080,853.333,1080C782.222,1080,711.111,1080,640,1080C568.889,1080,497.778,1080,426.667,1080C355.556,1080,284.444,1080,213.333,1080C142.222,1080,71.111,1080,35.556,1080L0,1080Z"></path></g><g transform="translate(0, 216)"><path fill="rgb(64, 72, 89)" fill-opacity="1" d="M0,151.005L35.556,136.457C71.111,121.909,142.222,92.812,213.333,78.248C284.444,63.685,355.556,63.654,426.667,84.765C497.778,105.875,568.889,148.126,640,170.818C711.111,193.51,782.222,196.643,853.333,170.805C924.444,144.967,995.556,90.158,1066.667,67.574C1137.778,44.99,1208.889,54.631,1280,75.764C1351.111,96.896,1422.222,129.519,1493.333,152.598C1564.444,175.676,1635.556,189.21,1706.667,180.309C1777.778,171.407,1848.889,140.071,1884.444,124.403L1920,108.735L1920,864L1884.444,864C1848.889,864,1777.778,864,1706.667,864C1635.556,864,1564.444,864,1493.333,864C1422.222,864,1351.111,864,1280,864C1208.889,864,1137.778,864,1066.667,864C995.556,864,924.444,864,853.333,864C782.222,864,711.111,864,640,864C568.889,864,497.778,864,426.667,864C355.556,864,284.444,864,213.333,864C142.222,864,71.111,864,35.556,864L0,864Z"></path></g><g transform="translate(0, 432)"><path fill="rgb(58, 66, 81)" fill-opacity="1" d="M0,11.443L35.556,9.803C71.111,8.164,142.222,4.885,213.333,24.647C284.444,44.41,355.556,87.215,426.667,100.669C497.778,114.124,568.889,98.228,640,81.706C711.111,65.185,782.222,48.037,853.333,43.353C924.444,38.669,995.556,46.447,1066.667,51.965C1137.778,57.483,1208.889,60.739,1280,79.834C1351.111,98.928,1422.222,133.861,1493.333,157.65C1564.444,181.439,1635.556,194.085,1706.667,201.671C1777.778,209.256,1848.889,211.781,1884.444,213.044L1920,214.306L1920,648L1884.444,648C1848.889,648,1777.778,648,1706.667,648C1635.556,648,1564.444,648,1493.333,648C1422.222,648,1351.111,648,1280,648C1208.889,648,1137.778,648,1066.667,648C995.556,648,924.444,648,853.333,648C782.222,648,711.111,648,640,648C568.889,648,497.778,648,426.667,648C355.556,648,284.444,648,213.333,648C142.222,648,71.111,648,35.556,648L0,648Z"></path></g><g transform="translate(0, 648)"><path fill="rgb(52, 59, 72)" fill-opacity="1" d="M0,119.09L35.556,109.707C71.111,100.325,142.222,81.56,213.333,65.182C284.444,48.804,355.556,34.813,426.667,55.484C497.778,76.155,568.889,131.487,640,163.3C711.111,195.113,782.222,203.408,853.333,207.849C924.444,212.29,995.556,212.879,1066.667,200.569C1137.778,188.259,1208.889,163.051,1280,147.31C1351.111,131.569,1422.222,125.295,1493.333,112.475C1564.444,99.655,1635.556,80.29,1706.667,95.586C1777.778,110.882,1848.889,160.839,1884.444,185.818L1920,210.796L1920,432L1884.444,432C1848.889,432,1777.778,432,1706.667,432C1635.556,432,1564.444,432,1493.333,432C1422.222,432,1351.111,432,1280,432C1208.889,432,1137.778,432,1066.667,432C995.556,432,924.444,432,853.333,432C782.222,432,711.111,432,640,432C568.889,432,497.778,432,426.667,432C355.556,432,284.444,432,213.333,432C142.222,432,71.111,432,35.556,432L0,432Z"></path></g><g transform="translate(0, 864)"><path fill="rgb(46, 52, 64)" fill-opacity="1" d="M0,185.924L35.556,187.712C71.111,189.501,142.222,193.078,213.333,188.928C284.444,184.778,355.556,172.902,426.667,143.273C497.778,113.645,568.889,66.265,640,71.939C711.111,77.613,782.222,136.34,853.333,149.683C924.444,163.026,995.556,130.984,1066.667,103.738C1137.778,76.492,1208.889,54.041,1280,53.578C1351.111,53.116,1422.222,74.641,1493.333,104.636C1564.444,134.631,1635.556,173.096,1706.667,175.404C1777.778,177.711,1848.889,143.859,1884.444,126.934L1920,110.008L1920,216L1884.444,216C1848.889,216,1777.778,216,1706.667,216C1635.556,216,1564.444,216,1493.333,216C1422.222,216,1351.111,216,1280,216C1208.889,216,1137.778,216,1066.667,216C995.556,216,924.444,216,853.333,216C782.222,216,711.111,216,640,216C568.889,216,497.778,216,426.667,216C355.556,216,284.444,216,213.333,216C142.222,216,71.111,216,35.556,216L0,216Z"></path></g></g></svg>