<svg width="800" height="800" viewBox="0 0 800 800" fill="none" xmlns="http://www.w3.org/2000/svg">
<path d="M468.575 254.724C488.302 240.241 502.95 219.896 510.426 196.592C517.902 173.289 517.824 148.22 510.204 124.964C502.584 101.707 487.81 81.4528 467.994 67.0925C448.177 52.7322 424.329 45 399.856 45C375.383 45 351.536 52.7322 331.719 67.0925C311.902 81.4528 297.129 101.707 289.509 124.964C281.889 148.22 281.811 173.289 289.287 196.592C296.763 219.896 311.411 240.241 331.138 254.724" stroke="#81A1C1" stroke-width="52.3636" stroke-linecap="round" stroke-linejoin="round"/>
<path d="M468.558 254.715L550.938 308.956C548.889 325.471 544.175 341.543 536.978 356.547H262.718C255.522 341.543 250.807 325.471 248.758 308.956L331.136 254.715" stroke="#81A1C1" stroke-width="52.3636" stroke-linecap="round" stroke-linejoin="round"/>
<path d="M464.005 356.547C464.005 521.526 634.695 545.638 634.695 705.54C602.967 745.358 490.513 754.086 399.847 754.086C309.182 754.086 196.727 745.369 165 705.54C165 545.638 335.689 521.526 335.689 356.547" stroke="#81A1C1" stroke-width="52.3636" stroke-linecap="round" stroke-linejoin="round"/>
<ellipse cx="402.5" cy="160" rx="99.5" ry="95" fill="#81A1C1"/>
<path d="M390.5 206L549.416 338H231.584L390.5 206Z" fill="#81A1C1"/>
<rect x="184" y="580" width="430" height="160" fill="#81A1C1"/>
<rect x="247" y="506" width="313" height="81" fill="#81A1C1"/>
<rect x="313" y="375" width="175" height="131" fill="#81A1C1"/>
<ellipse cx="312.956" cy="555.103" rx="119.5" ry="61" transform="rotate(-37.4619 312.956 555.103)" fill="#81A1C1"/>
<ellipse cx="501.673" cy="564.679" rx="119.5" ry="61" transform="rotate(40.1504 501.673 564.679)" fill="#81A1C1"/>
</svg>
