<svg width="470" height="710" viewBox="0 0 470 710" fill="none" xmlns="http://www.w3.org/2000/svg">
<path d="M303.575 209.724C323.302 195.241 337.95 174.896 345.426 151.592C352.902 128.289 352.824 103.22 345.204 79.964C337.584 56.707 322.81 36.4528 302.994 22.0925C283.177 7.7322 259.329 0 234.856 0C210.383 0 186.536 7.7322 166.719 22.0925C146.902 36.4528 132.129 56.707 124.509 79.964C116.889 103.22 116.811 128.289 124.287 151.592C131.763 174.896 146.411 195.241 166.138 209.724" fill="url(#paint0_linear_4_53)"/>
<path d="M303.558 209.715L385.938 263.956C383.889 280.471 379.175 296.543 371.978 311.547H97.718C90.522 296.543 85.807 280.471 83.758 263.956L166.136 209.715" fill="url(#paint1_linear_4_53)"/>
<path d="M299.005 311.547C299.005 476.526 469.695 500.638 469.695 660.54C437.967 700.358 325.513 709.086 234.847 709.086C144.182 709.086 31.727 700.369 0 660.54C0 500.638 170.689 476.526 170.689 311.547" fill="url(#paint2_linear_4_53)"/>
<defs>
<linearGradient id="paint0_linear_4_53" x1="2.26905e-06" y1="117.69" x2="469.695" y2="591.396" gradientUnits="userSpaceOnUse">
<stop stop-color="#5E81AC"/>
<stop offset="1" stop-color="#88C0D0"/>
</linearGradient>
<linearGradient id="paint1_linear_4_53" x1="2.26905e-06" y1="117.69" x2="469.695" y2="591.396" gradientUnits="userSpaceOnUse">
<stop stop-color="#5E81AC"/>
<stop offset="1" stop-color="#88C0D0"/>
</linearGradient>
<linearGradient id="paint2_linear_4_53" x1="2.26905e-06" y1="117.69" x2="469.695" y2="591.396" gradientUnits="userSpaceOnUse">
<stop stop-color="#5E81AC"/>
<stop offset="1" stop-color="#88C0D0"/>
</linearGradient>
</defs>
</svg>
