<svg width="800" height="800" viewBox="0 0 800 800" fill="none" xmlns="http://www.w3.org/2000/svg">
<path d="M524.8 504.075C487.025 501.6 457.325 470.35 457.325 432.15C457.325 430.875 457.35 429.6 457.425 428.325V428.5C457.35 427.3 457.3 425.9 457.3 424.475C457.3 386.35 487.05 355.2 524.6 352.925H524.8C562.525 354.975 592.325 386.05 592.325 424.1C592.325 425.65 592.275 427.175 592.175 428.7V428.5C592.25 429.75 592.3 431.225 592.3 432.7C592.3 470.775 562.525 501.9 524.975 504.05H524.775L524.8 504.075ZM275.65 504.075C237.875 501.6 208.175 470.35 208.175 432.15C208.175 430.875 208.2 429.6 208.275 428.325V428.5C208.2 427.3 208.15 425.9 208.15 424.475C208.15 386.35 237.9 355.2 275.45 352.925H275.65C313.375 354.975 343.175 386.05 343.175 424.1C343.175 425.65 343.125 427.175 343.025 428.7V428.5C343.1 429.7 343.15 431.1 343.15 432.525C343.15 470.65 313.4 501.8 275.85 504.075H275.65ZM659.825 161.625C615.75 140.825 564.55 124.375 510.95 114.85L507.225 114.3C507.1 114.275 506.95 114.25 506.8 114.25C505.925 114.25 505.175 114.725 504.775 115.425C498.925 125.7 492.575 138.525 486.85 151.675L485.775 154.45C460.025 150.325 430.325 147.975 400.075 147.975C369.825 147.975 340.125 150.325 311.15 154.85L314.375 154.425C307.625 138.675 301.175 125.875 294.05 113.475L295.075 115.4C294.65 114.675 293.875 114.225 293 114.225C292.875 114.225 292.725 114.225 292.6 114.25C235.275 124.325 184.075 140.75 136.225 163.175L140 161.575C139.575 161.75 139.225 162.05 139 162.425C67.65 263.45 24.95 389.15 24.95 524.825C24.95 547.5 26.15 569.875 28.475 591.925L28.25 589.175C28.325 589.9 28.7 590.5 29.225 590.925C82.725 630.95 144.925 663.2 212.05 684.375L216.45 685.575C216.65 685.65 216.9 685.675 217.15 685.675C217.95 685.675 218.65 685.3 219.075 684.725C232.45 666.725 245.175 646.325 256.2 624.925L257.375 622.425C257.525 622.125 257.625 621.75 257.625 621.35C257.625 620.325 256.975 619.475 256.075 619.125H256.05C233.25 610.325 213.975 600.95 195.625 590.2L197.55 591.25C196.825 590.825 196.35 590.05 196.35 589.175C196.35 588.4 196.725 587.7 197.3 587.275C201.225 584.325 205.175 581.275 208.925 578.175C209.325 577.85 209.85 577.65 210.4 577.65C210.75 577.65 211.075 577.725 211.35 577.85H211.325C266.525 604.375 331.325 619.875 399.725 619.875C468.125 619.875 532.95 604.375 590.8 576.7L588.125 577.85C588.425 577.7 588.75 577.625 589.125 577.625C589.675 577.625 590.2 577.825 590.6 578.15C594.35 581.25 598.275 584.35 602.25 587.275C602.825 587.725 603.2 588.425 603.2 589.2C603.2 590.075 602.725 590.825 602.05 591.25C585.525 601.125 566.25 610.475 546.175 618.2L543.55 619.1C542.65 619.45 542 620.325 542 621.325C542 621.725 542.1 622.1 542.275 622.425C554.8 646.425 567.5 666.775 581.55 686.1L580.55 684.675C580.975 685.275 581.7 685.675 582.475 685.675C582.725 685.675 582.975 685.625 583.2 685.575C654.825 663.275 717.125 631.025 772.325 589.775L770.7 590.95C771.25 590.55 771.6 589.925 771.675 589.225C773.85 569.625 775.075 546.875 775.075 523.85C775.075 388.475 732.275 263.1 659.5 160.5L660.8 162.45C660.6 162.05 660.25 161.725 659.85 161.55L659.825 161.625Z" fill="url(#paint0_linear_4_55)"/>
<defs>
<linearGradient id="paint0_linear_4_55" x1="111.521" y1="113.475" x2="688.504" y2="686.1" gradientUnits="userSpaceOnUse">
<stop stop-color="#5E81AC"/>
<stop offset="1" stop-color="#88C0D0"/>
</linearGradient>
</defs>
</svg>
