<svg width="840" height="800" viewBox="0 0 840 800" fill="none" xmlns="http://www.w3.org/2000/svg">
<g clip-path="url(#clip0_1_2)">
<path fill-rule="evenodd" clip-rule="evenodd" d="M196.31 673.554C199.024 670.213 202.289 667.516 205.916 665.617C209.543 663.719 213.462 662.655 217.449 662.489C221.436 662.322 225.412 663.055 229.151 664.646C232.89 666.236 236.318 668.653 239.239 671.759L274.263 709.219C279.482 715.664 282.374 724.129 282.356 732.912C282.339 741.695 279.414 750.144 274.17 756.563C268.925 762.982 261.75 766.894 254.085 767.514C246.42 768.133 238.835 765.414 232.852 759.903L197.828 722.563C191.972 716.273 188.527 707.595 188.243 698.416C187.958 689.237 190.858 680.301 196.31 673.554ZM647.226 673.554C644.511 670.213 641.247 667.516 637.62 665.617C633.993 663.719 630.074 662.655 626.087 662.489C622.1 662.322 618.124 663.055 614.385 664.646C610.646 666.236 607.218 668.653 604.297 671.759L569.272 709.159C563.517 715.478 560.164 724.13 559.938 733.248C559.712 742.367 562.63 751.221 568.064 757.903C573.497 764.584 581.01 768.557 588.983 768.965C596.956 769.373 604.75 766.183 610.684 760.082L645.708 722.742C651.611 716.447 655.086 707.73 655.371 698.507C655.656 689.285 652.726 680.31 647.226 673.554Z" fill="#81A1C1" stroke="#81A1C1" stroke-width="4.18642"/>
<path fill-rule="evenodd" clip-rule="evenodd" d="M773.135 203.992L656.44 237.143V123.447C656.449 108.511 653.223 93.8054 647.049 80.6415C640.876 67.4776 631.948 56.2653 621.061 48.005C610.174 39.7448 597.667 34.6935 584.657 33.3021C571.647 31.9106 558.537 34.2222 546.499 40.0306C486.467 69.1526 445.196 83.7136 422.684 83.7136C400.172 83.7136 358.29 68.9132 297.037 39.3125C285.002 33.5061 271.898 31.1941 258.892 32.5826C245.886 33.9711 233.382 39.0171 222.497 47.2704C211.611 55.5238 202.682 66.728 196.505 79.8839C190.328 93.0398 187.095 107.739 187.095 122.669V237.562L68.5681 203.992C64.3097 202.77 59.8586 202.718 55.5794 203.841C51.3002 204.964 47.3145 207.229 43.9487 210.452C40.5829 213.674 37.9327 217.762 36.2152 222.38C34.4977 226.999 33.7617 232.017 34.0675 237.023C37.355 287.297 54.2375 335.159 82.377 373.981C110.517 412.802 148.521 440.662 191.127 453.703C201.485 514.98 230.199 570.217 272.332 609.915C314.464 649.613 367.382 671.29 421.984 671.219C476.586 671.149 529.461 649.334 571.514 609.527C613.568 569.72 642.172 514.409 652.409 453.105C694.582 439.712 732.113 411.775 759.884 373.104C787.654 334.434 804.312 286.913 807.583 237.023C807.887 232.023 807.151 227.012 805.436 222.4C803.722 217.787 801.077 213.703 797.717 210.482C794.358 207.261 790.38 204.994 786.107 203.866C781.835 202.738 777.39 202.781 773.135 203.992Z" stroke="#81A1C1" stroke-width="50.237" stroke-miterlimit="10"/>
<rect x="203" y="73" width="442" height="114" fill="#81A1C1"/>
<rect x="223" y="45" width="98" height="70" fill="#81A1C1"/>
<rect x="188" y="175" width="98" height="70" fill="#81A1C1"/>
<rect x="557" y="164" width="98" height="70" fill="#81A1C1"/>
<rect x="528" y="45" width="94" height="70" fill="#81A1C1"/>
<ellipse cx="173.596" cy="336.548" rx="180.475" ry="79.5758" transform="rotate(31.1953 173.596 336.548)" fill="#81A1C1"/>
<ellipse cx="645.459" cy="345.605" rx="198.5" ry="88.5" transform="rotate(138.632 645.459 345.605)" fill="#81A1C1"/>
<path fill-rule="evenodd" clip-rule="evenodd" d="M655 361.5C655 520.834 551.354 650 423.5 650C295.646 650 192 520.834 192 361.5C192 202.166 295.646 73 423.5 73C551.354 73 655 202.166 655 361.5ZM347.139 241.99C347.139 222.789 333.532 207.223 316.748 207.223C299.963 207.223 286.357 222.789 286.357 241.99V283.519C286.357 302.72 299.963 318.285 316.748 318.285C333.532 318.285 347.139 302.72 347.139 283.519V241.99ZM524.903 207.223C541.688 207.223 555.294 222.789 555.294 241.99V283.519C555.294 302.72 541.688 318.285 524.903 318.285C508.119 318.285 494.512 302.72 494.512 283.519V241.99C494.512 222.789 508.119 207.223 524.903 207.223ZM376.142 339.169C378.504 326.83 384.585 315.833 393.323 308.099C402.06 300.366 412.897 296.388 423.94 296.863C434.586 296.923 444.891 301.156 453.133 308.857C461.375 316.557 467.056 327.257 469.226 339.169V341.025C469.226 342.58 468.807 343.179 467.551 342.999L423.993 352.035H421.428L377.817 343.119C376.613 343.119 376.142 342.64 376.142 341.144V339.169ZM420.485 362.926H423.051L456.504 356.164V359.814C456.504 370.035 452.952 379.837 446.629 387.064C440.306 394.291 431.731 398.351 422.789 398.351C413.847 398.351 405.271 394.291 398.948 387.064C392.626 379.837 389.073 370.035 389.073 359.814V356.523L420.485 362.926Z" fill="#81A1C1"/>
<path d="M393.323 308.099L391.935 306.532L391.935 306.532L393.323 308.099ZM376.142 339.169L374.086 338.776L374.049 338.971V339.169H376.142ZM423.94 296.863L423.851 298.954L423.89 298.956L423.929 298.956L423.94 296.863ZM453.133 308.857L454.562 307.327L454.562 307.327L453.133 308.857ZM469.226 339.169H471.319V338.98L471.285 338.794L469.226 339.169ZM467.551 342.999L467.847 340.927L467.484 340.875L467.125 340.95L467.551 342.999ZM423.993 352.035V354.128H424.208L424.418 354.085L423.993 352.035ZM421.428 352.035L421.008 354.086L421.216 354.128H421.428V352.035ZM377.817 343.119L378.237 341.068L378.029 341.026H377.817V343.119ZM423.051 362.926V365.019H423.26L423.465 364.978L423.051 362.926ZM420.485 362.926L420.067 364.977L420.274 365.019H420.485V362.926ZM456.504 356.164H458.597V353.605L456.089 354.112L456.504 356.164ZM446.629 387.064L448.204 388.442L448.204 388.442L446.629 387.064ZM398.948 387.064L397.373 388.442L397.373 388.442L398.948 387.064ZM389.073 356.523L389.491 354.472L386.98 353.96V356.523H389.073ZM423.5 652.093C552.917 652.093 657.093 521.537 657.093 361.5H652.907C652.907 520.132 549.791 647.907 423.5 647.907V652.093ZM189.907 361.5C189.907 521.537 294.083 652.093 423.5 652.093V647.907C297.209 647.907 194.093 520.132 194.093 361.5H189.907ZM423.5 70.9068C294.083 70.9068 189.907 201.463 189.907 361.5H194.093C194.093 202.868 297.209 75.0932 423.5 75.0932V70.9068ZM657.093 361.5C657.093 201.463 552.917 70.9068 423.5 70.9068V75.0932C549.791 75.0932 652.907 202.868 652.907 361.5H657.093ZM316.748 209.316C332.12 209.316 345.045 223.671 345.045 241.99H349.232C349.232 221.906 334.944 205.13 316.748 205.13V209.316ZM288.45 241.99C288.45 223.671 301.375 209.316 316.748 209.316V205.13C298.552 205.13 284.263 221.906 284.263 241.99H288.45ZM288.45 283.519V241.99H284.263V283.519H288.45ZM316.748 316.192C301.375 316.192 288.45 301.837 288.45 283.519H284.263C284.263 303.602 298.551 320.379 316.748 320.379V316.192ZM345.045 283.519C345.045 301.837 332.12 316.192 316.748 316.192V320.379C334.944 320.379 349.232 303.602 349.232 283.519H345.045ZM345.045 241.99V283.519H349.232V241.99H345.045ZM557.387 241.99C557.387 221.906 543.099 205.13 524.903 205.13V209.316C540.276 209.316 553.201 223.671 553.201 241.99H557.387ZM557.387 283.519V241.99H553.201V283.519H557.387ZM524.903 320.379C543.099 320.379 557.387 303.602 557.387 283.519H553.201C553.201 301.837 540.276 316.192 524.903 316.192V320.379ZM492.419 283.519C492.419 303.602 506.707 320.379 524.903 320.379V316.192C509.53 316.192 496.606 301.837 496.606 283.519H492.419ZM492.419 241.99V283.519H496.606V241.99H492.419ZM524.903 205.13C506.707 205.13 492.419 221.906 492.419 241.99H496.606C496.606 223.671 509.53 209.316 524.903 209.316V205.13ZM391.935 306.532C382.824 314.596 376.528 326.02 374.086 338.776L378.198 339.563C380.48 327.641 386.346 317.069 394.71 309.667L391.935 306.532ZM424.03 294.772C412.413 294.273 401.054 298.461 391.935 306.532L394.71 309.667C403.066 302.27 413.382 298.504 423.851 298.954L424.03 294.772ZM454.562 307.327C445.96 299.291 435.157 294.833 423.952 294.77L423.929 298.956C434.014 299.013 443.821 303.022 451.704 310.386L454.562 307.327ZM471.285 338.794C469.041 326.474 463.158 315.358 454.562 307.327L451.704 310.386C459.593 317.756 465.071 328.04 467.166 339.545L471.285 338.794ZM471.319 341.025V339.169H467.133V341.025H471.319ZM467.254 345.071C468.179 345.204 469.536 345.147 470.483 343.984C471.245 343.048 471.319 341.836 471.319 341.025H467.133C467.133 341.334 467.11 341.5 467.095 341.572C467.079 341.644 467.092 341.518 467.236 341.341C467.311 341.249 467.408 341.16 467.524 341.088C467.638 341.017 467.744 340.978 467.824 340.957C467.967 340.921 468.004 340.95 467.847 340.927L467.254 345.071ZM424.418 354.085L467.976 345.049L467.125 340.95L423.568 349.985L424.418 354.085ZM421.428 354.128H423.993V349.942H421.428V354.128ZM377.398 345.17L421.008 354.086L421.847 349.984L378.237 341.068L377.398 345.17ZM374.049 341.144C374.049 341.995 374.157 343.161 374.953 344.071C375.823 345.066 377.014 345.212 377.817 345.212V341.026C377.639 341.026 377.619 341.006 377.685 341.027C377.725 341.04 377.792 341.066 377.873 341.117C377.955 341.168 378.035 341.235 378.104 341.314C378.244 341.475 378.272 341.604 378.267 341.582C378.259 341.55 378.235 341.423 378.235 341.144H374.049ZM374.049 339.169V341.144H378.235V339.169H374.049ZM423.051 360.833H420.485V365.019H423.051V360.833ZM456.089 354.112L422.636 360.874L423.465 364.978L456.919 358.216L456.089 354.112ZM458.597 359.814V356.164H454.411V359.814H458.597ZM448.204 388.442C454.884 380.808 458.597 370.506 458.597 359.814H454.411C454.411 369.563 451.02 378.866 445.054 385.686L448.204 388.442ZM422.789 400.444C432.383 400.444 441.517 396.086 448.204 388.442L445.054 385.686C439.095 392.496 431.078 396.258 422.789 396.258V400.444ZM397.373 388.442C404.06 396.086 413.195 400.444 422.789 400.444V396.258C414.499 396.258 406.482 392.496 400.524 385.686L397.373 388.442ZM386.98 359.814C386.98 370.506 390.694 380.808 397.373 388.442L400.524 385.686C394.557 378.866 391.167 369.563 391.167 359.814H386.98ZM386.98 356.523V359.814H391.167V356.523H386.98ZM420.903 360.875L389.491 354.472L388.655 358.574L420.067 364.977L420.903 360.875Z" fill="#81A1C1"/>
</g>
<defs>
<clipPath id="clip0_1_2">
<rect width="840" height="800" fill="white"/>
</clipPath>
</defs>
</svg>
