<svg width="800" height="800" viewBox="0 0 800 800" fill="none" xmlns="http://www.w3.org/2000/svg">
<path d="M753.679 207.17V617.099C753.679 643.726 732.099 665.33 705.472 665.33H592.901V392.052L400 536.769L207.099 392.052V665.354H94.5519C67.9245 665.354 46.3443 643.774 46.3443 617.146V617.123V207.193C46.3443 167.241 78.7264 134.835 118.679 134.835C135.047 134.835 150.142 140.283 162.264 149.434L162.075 149.292L400 327.759L637.925 149.292C649.859 140.259 664.953 134.835 681.321 134.835C721.274 134.835 753.679 167.217 753.679 207.17Z" fill="url(#paint0_linear_9_3)"/>
<defs>
<linearGradient id="paint0_linear_9_3" x1="131.47" y1="134.835" x2="668.554" y2="665.354" gradientUnits="userSpaceOnUse">
<stop stop-color="#5E81AC"/>
<stop offset="1" stop-color="#88C0D0"/>
</linearGradient>
</defs>
</svg>
