<svg width="800" height="800" viewBox="0 0 800 800" fill="none" xmlns="http://www.w3.org/2000/svg">
<path fill-rule="evenodd" clip-rule="evenodd" d="M521.16 509.902C490.68 509.902 465.12 484.876 465.12 454.004C465.12 423.091 490.68 397.246 521.16 397.246C551.6 397.246 576.28 423.091 576.28 454.004C576.28 484.876 551.64 509.902 521.16 509.902ZM528.92 613.184C502 640.446 459.8 653.711 399.96 653.711C340.08 653.711 297.92 640.446 271.04 613.184C265.2 607.261 265.2 597.682 271.04 591.719C276.84 585.796 286.32 585.796 292.16 591.719C313.16 613.017 348.4 623.398 399.96 623.398C451.48 623.398 486.76 613.017 507.8 591.719C513.6 585.796 523.08 585.796 528.92 591.719C534.76 597.682 534.76 607.261 528.92 613.184ZM223.68 454.004C223.68 423.132 249.2 397.246 279.64 397.246C310.08 397.246 334.76 423.132 334.76 454.004C334.76 484.876 310.08 509.902 279.64 509.902C249.2 509.902 223.68 484.876 223.68 454.004ZM800 392.539C800 341.869 759.36 300.645 709.4 300.645C686.36 300.645 664.64 309.362 648 324.98C588.2 285.508 508.12 259.993 419.44 256.504L468.36 105.078L596.84 135.742C596.88 177.446 630.32 211.328 671.44 211.328C712.56 211.328 746.04 177.368 746.04 135.664C746.04 93.9601 712.56 60 671.44 60C640.64 60 614.2 78.9764 602.8 106.035C575.12 99.4224 476.16 75.7726 448.48 69.1602L388.08 256.191C296.04 257.936 212.64 283.324 150.6 323.73C134.16 308.923 112.88 300.645 90.56 300.645C40.64 300.645 0 341.869 0 392.539C0 424.709 16.56 454.191 43.04 470.742C18.92 615.245 186.8 740 398.32 740C608.96 740 776.28 616.351 753.96 472.578C782.28 456.473 800 426.291 800 392.539Z" fill="url(#paint0_linear_4_108)"/>
<defs>
<linearGradient id="paint0_linear_4_108" x1="63.5262" y1="60" x2="736.474" y2="740" gradientUnits="userSpaceOnUse">
<stop stop-color="#5E81AC"/>
<stop offset="1" stop-color="#88C0D0"/>
</linearGradient>
</defs>
</svg>
