<svg width="800" height="800" viewBox="0 0 800 800" fill="none" xmlns="http://www.w3.org/2000/svg">
<g clip-path="url(#clip0_2_10)">
<path fill-rule="evenodd" clip-rule="evenodd" d="M319.538 503.445V278.972C399.226 316.469 460.944 352.692 533.938 391.745C473.734 425.134 399.226 462.597 319.538 503.445ZM763.64 167.331C749.894 149.221 726.466 135.124 701.524 130.456C628.21 116.534 170.839 116.495 97.5661 130.456C77.5643 134.206 59.7535 143.269 44.4533 157.351C-20.0145 217.187 0.186647 538.068 15.7259 590.046C22.2603 612.545 30.7076 628.77 41.346 639.421C55.0524 653.502 73.8186 663.198 95.3743 667.546C155.738 680.032 466.722 687.013 700.248 669.421C721.764 665.672 740.809 655.664 755.83 640.984C815.437 581.387 811.374 242.485 763.64 167.331Z" fill="url(#paint0_linear_2_10)"/>
</g>
<defs>
<linearGradient id="paint0_linear_2_10" x1="95.0114" y1="106.877" x2="697.989" y2="700.623" gradientUnits="userSpaceOnUse">
<stop stop-color="#5E81AC"/>
<stop offset="1" stop-color="#88C0D0"/>
</linearGradient>
<clipPath id="clip0_2_10">
<rect width="800" height="800" fill="white"/>
</clipPath>
</defs>
</svg>
